<svg width="120" height="120" viewBox="0 0 120 120" fill="none" xmlns="http://www.w3.org/2000/svg">
<path fill-rule="evenodd" clip-rule="evenodd" d="M24.7239 60.024H27.1052C28.2098 60.024 29.1052 60.9195 29.1052 62.024V93.1994C29.1052 94.304 28.2098 95.1994 27.1052 95.1994H12C9.79086 95.1994 8 93.4085 8 91.1994V64.024C8 61.8149 9.79086 60.024 12 60.024H15.0349C15.035 54.1115 16.1995 48.2568 18.4622 42.7943C20.7249 37.3317 24.0414 32.3683 28.2223 28.1874C32.4032 24.0064 37.3666 20.69 42.8293 18.4273C48.2919 16.1646 54.1467 15 60.0594 15C65.9721 15 71.8269 16.1646 77.2895 18.4273C82.7521 20.69 87.7156 24.0065 91.8965 28.1874C96.0774 32.3683 99.3939 37.3317 101.657 42.7943C103.919 48.2568 105.084 54.1115 105.084 60.024H108.119C110.328 60.024 112.119 61.8149 112.119 64.024V91.1994C112.119 93.4085 110.328 95.1994 108.119 95.1994H93.014C91.9094 95.1994 91.014 94.304 91.014 93.1994V62.024C91.014 60.9195 91.9094 60.024 93.014 60.024H95.3948C95.3947 55.3839 94.4808 50.7891 92.705 46.5022C90.9293 42.2151 88.3265 38.3197 85.0453 35.0385C81.7641 31.7573 77.8687 29.1546 73.5817 27.3788C69.2946 25.603 64.6997 24.689 60.0594 24.689C55.4191 24.689 50.8242 25.603 46.5371 27.3788C42.25 29.1545 38.3546 31.7573 35.0734 35.0385C31.7922 38.3197 29.1895 42.2151 27.4137 46.5022C25.638 50.7891 24.724 55.3839 24.7239 60.024Z" fill="#F49231"/>
<path d="M8 64C8 61.7909 9.79086 60 12 60H27.0937C28.1983 60 29.0938 60.8954 29.0938 62V93.1563C29.0938 94.2608 28.1983 95.1562 27.0938 95.1562H12C9.79086 95.1562 8 93.3654 8 91.1562V64Z" stroke="black" stroke-width="2"/>
<path d="M112.062 64C112.062 61.7909 110.272 60 108.063 60H92.9688C91.8642 60 90.9688 60.8954 90.9688 62V93.1563C90.9688 94.2608 91.8642 95.1562 92.9687 95.1562H108.063C110.272 95.1562 112.062 93.3654 112.062 91.1562V64Z" stroke="black" stroke-width="2"/>
<line x1="21.6562" y1="60" x2="21.6562" y2="95.1562" stroke="black" stroke-width="2"/>
<line y1="-1" x2="35.1562" y2="-1" transform="matrix(4.37112e-08 1 1 -4.37112e-08 99.4062 60)" stroke="black" stroke-width="2"/>
<path d="M15.0312 60C15.0312 54.0905 16.1952 48.2389 18.4567 42.7792C20.7181 37.3196 24.0328 32.3588 28.2114 28.1802C32.3901 24.0016 37.3508 20.6869 42.8105 18.4254C48.2702 16.164 54.1218 15 60.0313 15C65.9407 15 71.7924 16.164 77.252 18.4254C82.7117 20.6869 87.6724 24.0016 91.8511 28.1802C96.0297 32.3588 99.3444 37.3196 101.606 42.7793C103.867 48.2389 105.031 54.0905 105.031 60L95.3475 60C95.3475 55.3622 94.434 50.7698 92.6592 46.4851C90.8844 42.2003 88.283 38.3071 85.0036 35.0277C81.7242 31.7482 77.831 29.1469 73.5462 27.3721C69.2614 25.5973 64.669 24.6838 60.0313 24.6838C55.3935 24.6838 50.8011 25.5972 46.5163 27.3721C42.2316 29.1469 38.3383 31.7482 35.0589 35.0277C31.7795 38.3071 29.1781 42.2003 27.4033 46.4851C25.6285 50.7698 24.715 55.3622 24.715 60L15.0312 60Z" stroke="black" stroke-width="2"/>
<rect x="36.125" y="68.4375" width="2.8125" height="18.2812" rx="1.40625" fill="black"/>
<rect x="58.625" y="69.8438" width="2.8125" height="16.875" rx="1.40625" fill="black"/>
<rect x="64.25" y="71.25" width="2.8125" height="14.0625" rx="1.40625" fill="black"/>
<rect x="81.125" y="71.25" width="2.8125" height="14.0625" rx="1.40625" fill="black"/>
<rect x="41.75" y="64.2188" width="2.8125" height="26.7188" rx="1.40625" fill="black"/>
<rect x="47.375" y="64.2188" width="2.8125" height="26.7188" rx="1.40625" fill="black"/>
<rect x="75.5" y="64.2188" width="2.8125" height="26.7188" rx="1.40625" fill="black"/>
<rect x="53" y="67.0312" width="2.8125" height="21.0938" rx="1.40625" fill="black"/>
<rect x="69.875" y="67.0312" width="2.8125" height="21.0938" rx="1.40625" fill="black"/>
</svg>
