<svg width="120" height="120" viewBox="0 0 120 120" fill="none" xmlns="http://www.w3.org/2000/svg">
<path d="M89 28.5C89 24.8109 89 20.9906 89 17C89 16.3381 89 15.6715 89 15C89 12.7909 87.2091 11 85 11H17C14.7909 11 13 12.7909 13 15V72.5M13 82.5V106C13 110.418 16.5817 114 21 114H85C87.2091 114 89 112.208 89 109.999C89 101.703 89 94.1489 89 87" stroke="black" stroke-width="2" stroke-linecap="round"/>
<path d="M13 106C13 101.582 16.5817 98 21 98H89V110C89 112.209 87.2091 114 85 114H21C16.5817 114 13 110.418 13 106V106Z" stroke="black" stroke-width="2"/>
<path d="M113.358 71C115.669 67.2121 117 62.7615 117 58C117 54.0529 116.085 50.3194 114.456 47M109.5 75.8536C104.991 80.2742 98.8136 83 92 83C78.1929 83 67 71.8071 67 58C67 44.1929 78.1929 33 92 33C99.7962 33 106.759 36.5686 111.344 42.1614" stroke="black" stroke-width="2" stroke-linecap="round" stroke-linejoin="round"/>
<rect x="30" y="20" width="43" height="16" rx="4" fill="#F49231" stroke="black" stroke-width="2"/>
<line x1="31" y1="52" x2="55" y2="52" stroke="black" stroke-width="2" stroke-linecap="round"/>
<line x1="31" y1="61" x2="54" y2="61" stroke="black" stroke-width="2" stroke-linecap="round"/>
<g clip-path="url(#clip0_492_22077)">
<rect width="32" height="32" transform="translate(76 42)" fill="white"/>
<path d="M91.049 44.9266C91.3483 44.0054 92.6517 44.0054 92.951 44.9266L95.368 52.3644C95.5019 52.7764 95.8858 53.0553 96.319 53.0553L104.14 53.0556C105.108 53.0556 105.511 54.2952 104.727 54.8646L98.4006 59.4617C98.0501 59.7163 97.9035 60.1676 98.0373 60.5796L100.454 68.0176C100.753 68.9388 99.6986 69.7049 98.9149 69.1356L92.5878 64.539C92.2373 64.2844 91.7627 64.2844 91.4122 64.539L85.0851 69.1356C84.3014 69.7049 83.247 68.9388 83.5463 68.0176L85.9627 60.5796C86.0965 60.1676 85.9499 59.7163 85.5994 59.4617L79.2726 54.8646C78.4889 54.2952 78.8917 53.0556 79.8604 53.0556L87.681 53.0553C88.1142 53.0553 88.4981 52.7764 88.632 52.3644L91.049 44.9266Z" fill="#F49231" stroke="#121212" stroke-width="3"/>
</g>
<defs>
<clipPath id="clip0_492_22077">
<rect width="32" height="32" fill="white" transform="translate(76 42)"/>
</clipPath>
</defs>
</svg>
