<svg width="120" height="120" viewBox="0 0 120 120" fill="none" xmlns="http://www.w3.org/2000/svg">
<path d="M52.249 45.4634V102.156M52.249 45.4634C47.1558 42.0796 40.241 40 32.6245 40C25.008 40 18.0932 42.0796 13 45.4634V81.5M52.249 45.4634C57.3422 42.0796 64.257 40 71.8735 40C79.4899 40 86.4048 42.0796 91.498 45.4634V102.156C86.4048 98.7726 79.4899 96.693 71.8735 96.693C64.257 96.693 57.3422 98.7726 52.249 102.156M52.249 102.156C47.1558 98.7726 40.241 96.693 32.6245 96.693C25.008 96.693 18.0932 98.7726 13 102.156V87" stroke="black" stroke-width="2" stroke-linecap="round" stroke-linejoin="round"/>
<path d="M62.6369 7.99986C63.9987 4.31971 69.2038 4.31971 70.5656 7.99986L72.3044 12.699C72.7326 13.856 73.6448 14.7683 74.8018 15.1964L79.501 16.9352C83.1811 18.297 83.1811 23.5021 79.5009 24.8639L74.8018 26.6028C73.6448 27.0309 72.7326 27.9431 72.3044 29.1002L70.5656 33.7993C69.2038 37.4794 63.9987 37.4794 62.6369 33.7993L60.8981 29.1002C60.4699 27.9431 59.5577 27.0309 58.4006 26.6028L53.7015 24.8639C50.0214 23.5021 50.0214 18.297 53.7015 16.9352L58.4006 15.1964C59.5577 14.7683 60.4699 13.856 60.8981 12.699L62.6369 7.99986Z" fill="#F49231"/>
<path d="M64.9012 66.4463C66.0053 63.4624 70.2257 63.4624 71.3298 66.4463L71.8779 67.9272C72.225 68.8654 72.9647 69.6051 73.9028 69.9522L75.3838 70.5002C78.3677 71.6044 78.3677 75.8248 75.3838 76.9289L73.9028 77.4769C72.9647 77.8241 72.225 78.5637 71.8779 79.5018L71.3298 80.9828C70.2257 83.9667 66.0053 83.9667 64.9012 80.9828L64.3532 79.5018C64.006 78.5637 63.2664 77.8241 62.3282 77.4769L60.8473 76.9289C57.8633 75.8248 57.8633 71.6044 60.8473 70.5002L62.3282 69.9522C63.2664 69.6051 64.006 68.8654 64.3532 67.9272L64.9012 66.4463Z" fill="#F49231"/>
<path d="M89.7765 34.643C91.5432 29.8687 98.2958 29.8687 100.062 34.643L102.835 42.1366C103.391 43.6376 104.574 44.8211 106.075 45.3765L113.569 48.1494C118.343 49.916 118.343 56.6687 113.569 58.4353L106.075 61.2082C104.574 61.7636 103.391 62.9471 102.835 64.4481L100.062 71.9417C98.2958 76.716 91.5432 76.716 89.7765 71.9417L87.0036 64.4481C86.4482 62.9471 85.2648 61.7636 83.7638 61.2082L76.2701 58.4353C71.4959 56.6687 71.4959 49.916 76.2701 48.1494L83.7638 45.3765C85.2648 44.8211 86.4482 43.6376 87.0036 42.1366L89.7765 34.643Z" fill="#F49231"/>
<path d="M62.6369 7.99986C63.9987 4.31971 69.2038 4.31971 70.5656 7.99986L72.3044 12.699C72.7326 13.856 73.6448 14.7683 74.8018 15.1964L79.501 16.9352C83.1811 18.297 83.1811 23.5021 79.5009 24.8639L74.8018 26.6028C73.6448 27.0309 72.7326 27.9431 72.3044 29.1002L70.5656 33.7993C69.2038 37.4794 63.9987 37.4794 62.6369 33.7993L60.8981 29.1002C60.4699 27.9431 59.5577 27.0309 58.4006 26.6028L53.7015 24.8639C50.0214 23.5021 50.0214 18.297 53.7015 16.9352L58.4006 15.1964C59.5577 14.7683 60.4699 13.856 60.8981 12.699L62.6369 7.99986Z" stroke="black" stroke-width="2"/>
<path d="M64.9012 66.4463C66.0053 63.4624 70.2257 63.4624 71.3298 66.4463L71.8779 67.9272C72.225 68.8654 72.9647 69.6051 73.9028 69.9522L75.3838 70.5002C78.3677 71.6044 78.3677 75.8248 75.3838 76.9289L73.9028 77.4769C72.9647 77.8241 72.225 78.5637 71.8779 79.5018L71.3298 80.9828C70.2257 83.9667 66.0053 83.9667 64.9012 80.9828L64.3532 79.5018C64.006 78.5637 63.2664 77.8241 62.3282 77.4769L60.8473 76.9289C57.8633 75.8248 57.8633 71.6044 60.8473 70.5002L62.3282 69.9522C63.2664 69.6051 64.006 68.8654 64.3532 67.9272L64.9012 66.4463Z" stroke="black" stroke-width="2"/>
<path d="M89.7765 34.643C91.5432 29.8687 98.2958 29.8687 100.062 34.643L102.835 42.1366C103.391 43.6376 104.574 44.8211 106.075 45.3765L113.569 48.1494C118.343 49.916 118.343 56.6687 113.569 58.4353L106.075 61.2082C104.574 61.7636 103.391 62.9471 102.835 64.4481L100.062 71.9417C98.2958 76.716 91.5432 76.716 89.7765 71.9417L87.0036 64.4481C86.4482 62.9471 85.2648 61.7636 83.7638 61.2082L76.2701 58.4353C71.4959 56.6687 71.4959 49.916 76.2701 48.1494L83.7638 45.3765C85.2648 44.8211 86.4482 43.6376 87.0036 42.1366L89.7765 34.643Z" stroke="black" stroke-width="2"/>
</svg>
