<svg width="82" height="96" viewBox="0 0 82 96" fill="none" xmlns="http://www.w3.org/2000/svg">
<g filter="url(#filter0_dd_492_22264)">
<path fill-rule="evenodd" clip-rule="evenodd" d="M41 79C58.1208 79 72 65.1208 72 48C72 30.8792 58.1208 17 41 17C23.8792 17 10 30.8792 10 48C10 65.1208 23.8792 79 41 79Z" fill="#193D52"/>
<path d="M70.5 48C70.5 64.2924 57.2924 77.5 41 77.5C24.7076 77.5 11.5 64.2924 11.5 48C11.5 31.7076 24.7076 18.5 41 18.5C57.2924 18.5 70.5 31.7076 70.5 48Z" stroke="#193D52" stroke-width="3"/>
</g>
<path d="M39.3859 57.1669L39.3605 49.3587H36.0391V46.0123H39.3605V43.7814C39.3605 40.7705 41.2111 39.3195 43.8769 39.3195C45.1539 39.3195 46.2514 39.4153 46.5712 39.4581V42.6047L44.7223 42.6055C43.2725 42.6055 42.9918 43.2996 42.9918 44.3182V46.0123H47.1105L46.0033 49.3587H42.9918V57.1669H39.3859Z" fill="white"/>
<defs>
<filter id="filter0_dd_492_22264" x="0" y="0" width="82" height="96" filterUnits="userSpaceOnUse" color-interpolation-filters="sRGB">
<feFlood flood-opacity="0" result="BackgroundImageFix"/>
<feColorMatrix in="SourceAlpha" type="matrix" values="0 0 0 0 0 0 0 0 0 0 0 0 0 0 0 0 0 0 127 0" result="hardAlpha"/>
<feOffset dy="7"/>
<feGaussianBlur stdDeviation="5"/>
<feColorMatrix type="matrix" values="0 0 0 0 0 0 0 0 0 0 0 0 0 0 0 0 0 0 0.3 0"/>
<feBlend mode="normal" in2="BackgroundImageFix" result="effect1_dropShadow_492_22264"/>
<feColorMatrix in="SourceAlpha" type="matrix" values="0 0 0 0 0 0 0 0 0 0 0 0 0 0 0 0 0 0 127 0" result="hardAlpha"/>
<feOffset dy="-7"/>
<feGaussianBlur stdDeviation="5"/>
<feColorMatrix type="matrix" values="0 0 0 0 0 0 0 0 0 0 0 0 0 0 0 0 0 0 0.1 0"/>
<feBlend mode="normal" in2="effect1_dropShadow_492_22264" result="effect2_dropShadow_492_22264"/>
<feBlend mode="normal" in="SourceGraphic" in2="effect2_dropShadow_492_22264" result="shape"/>
</filter>
</defs>
</svg>
