<svg width="83" height="96" viewBox="0 0 83 96" fill="none" xmlns="http://www.w3.org/2000/svg">
<g filter="url(#filter0_dd_492_22267)">
<path fill-rule="evenodd" clip-rule="evenodd" d="M41.6855 79C58.8064 79 72.6855 65.1208 72.6855 48C72.6855 30.8792 58.8064 17 41.6855 17C24.5647 17 10.6855 30.8792 10.6855 48C10.6855 65.1208 24.5647 79 41.6855 79Z" fill="#193D52"/>
<path d="M71.1855 48C71.1855 64.2924 57.9779 77.5 41.6855 77.5C25.3931 77.5 12.1855 64.2924 12.1855 48C12.1855 31.7076 25.3931 18.5 41.6855 18.5C57.9779 18.5 71.1855 31.7076 71.1855 48Z" stroke="#193D52" stroke-width="3"/>
</g>
<path d="M31.7698 42.8954L41.6856 47.8533L51.6015 42.8953C51.5267 41.5929 50.4468 40.5598 49.1256 40.5598H34.2456C32.9244 40.5598 31.8445 41.5929 31.7698 42.8954Z" fill="white"/>
<path d="M51.6056 45.666L41.6856 50.626L31.7656 45.6661V52.9598C31.7656 54.3295 32.876 55.4398 34.2456 55.4398H49.1256C50.4953 55.4398 51.6056 54.3295 51.6056 52.9598V45.666Z" fill="white"/>
<defs>
<filter id="filter0_dd_492_22267" x="0.685547" y="0" width="82" height="96" filterUnits="userSpaceOnUse" color-interpolation-filters="sRGB">
<feFlood flood-opacity="0" result="BackgroundImageFix"/>
<feColorMatrix in="SourceAlpha" type="matrix" values="0 0 0 0 0 0 0 0 0 0 0 0 0 0 0 0 0 0 127 0" result="hardAlpha"/>
<feOffset dy="7"/>
<feGaussianBlur stdDeviation="5"/>
<feColorMatrix type="matrix" values="0 0 0 0 0 0 0 0 0 0 0 0 0 0 0 0 0 0 0.3 0"/>
<feBlend mode="normal" in2="BackgroundImageFix" result="effect1_dropShadow_492_22267"/>
<feColorMatrix in="SourceAlpha" type="matrix" values="0 0 0 0 0 0 0 0 0 0 0 0 0 0 0 0 0 0 127 0" result="hardAlpha"/>
<feOffset dy="-7"/>
<feGaussianBlur stdDeviation="5"/>
<feColorMatrix type="matrix" values="0 0 0 0 0 0 0 0 0 0 0 0 0 0 0 0 0 0 0.1 0"/>
<feBlend mode="normal" in2="effect1_dropShadow_492_22267" result="effect2_dropShadow_492_22267"/>
<feBlend mode="normal" in="SourceGraphic" in2="effect2_dropShadow_492_22267" result="shape"/>
</filter>
</defs>
</svg>
