<svg width="120" height="120" viewBox="0 0 120 120" fill="none" xmlns="http://www.w3.org/2000/svg">
<path d="M13 79.5431V105.487C13 108.248 15.2386 110.487 18 110.487H72.2212C74.4304 110.487 76.2212 108.696 76.2212 106.487V28.8052C76.2212 26.596 74.4304 24.8052 72.2212 24.8052H17C14.7909 24.8052 13 26.596 13 28.8052V72.5" stroke="black" stroke-width="2" stroke-linecap="round"/>
<path d="M13 103.5C13 99.9101 15.9101 97 19.5 97H76V106C76 108.209 74.2091 110 72 110H19.5C15.9102 110 13 107.09 13 103.5V103.5Z" stroke="black" stroke-width="2"/>
<line x1="50.0176" y1="86.6104" x2="69.6459" y2="86.6104" stroke="black" stroke-width="2" stroke-linecap="round"/>
<line x1="40" y1="81" x2="70.4425" y2="81" stroke="black" stroke-width="2" stroke-linecap="round"/>
<path fill-rule="evenodd" clip-rule="evenodd" d="M52.1363 39.6732H53.3157C54.4203 39.6732 55.3157 40.5686 55.3157 41.6732V63.1994C55.3157 64.304 54.4203 65.1994 53.3157 65.1994H44C41.7909 65.1994 40 63.4085 40 61.1994V43.6732C40 41.4641 41.7909 39.6732 44 39.6732H45.1051C45.1052 35.3826 45.9503 31.1339 47.5922 27.1699C49.2342 23.2058 51.641 19.6039 54.675 16.5698C57.709 13.5358 61.3109 11.1291 65.275 9.48712C69.2392 7.84512 73.4879 7 77.7786 7C82.0694 7 86.3181 7.84513 90.2822 9.48712C94.2464 11.1291 97.8483 13.5358 100.882 16.5699C103.916 19.6039 106.323 23.2058 107.965 27.1699C109.607 31.1339 110.452 35.3826 110.452 39.6732H111.558C113.767 39.6732 115.558 41.4641 115.558 43.6732V61.1994C115.558 63.4085 113.767 65.1994 111.558 65.1994H102.242C101.137 65.1994 100.242 64.304 100.242 63.1994V41.6732C100.242 40.5686 101.137 39.6732 102.242 39.6732H103.421C103.421 36.3059 102.758 32.9716 101.469 29.8606C100.18 26.7495 98.2916 23.9228 95.9105 21.5416C93.5294 19.1605 90.7026 17.2717 87.5915 15.9831C84.4805 14.6944 81.146 14.0312 77.7786 14.0312C74.4112 14.0312 71.0768 14.6944 67.9657 15.9831C64.8547 17.2717 62.0279 19.1605 59.6468 21.5416C57.2656 23.9227 55.3768 26.7495 54.0882 29.8606C52.7996 32.9716 52.1363 36.3059 52.1363 39.6732Z" fill="#F49231"/>
<path d="M39 43.6733C39 41.4642 40.7909 39.6733 43 39.6733H52.3157C53.4203 39.6733 54.3157 40.5688 54.3157 41.6733V63.1995C54.3157 64.3041 53.4203 65.1995 52.3157 65.1995H43C40.7909 65.1995 39 63.4087 39 61.1995V43.6733Z" stroke="black" stroke-width="2"/>
<path d="M114.559 43.6733C114.559 41.4642 112.768 39.6733 110.559 39.6733H101.243C100.138 39.6733 99.2429 40.5688 99.2429 41.6733V63.1995C99.2429 64.3041 100.138 65.1995 101.243 65.1995H110.559C112.768 65.1995 114.559 63.4087 114.559 61.1995V43.6733Z" stroke="black" stroke-width="2"/>
<line x1="49.1895" y1="39.6733" x2="49.1895" y2="65.1995" stroke="black" stroke-width="2"/>
<line y1="-1" x2="25.5262" y2="-1" transform="matrix(4.37112e-08 1 1 -4.37112e-08 105.367 39.6733)" stroke="black" stroke-width="2"/>
<path d="M44.1061 39.6734C44.1061 35.3827 44.9512 31.1339 46.5932 27.1698C48.2352 23.2057 50.6419 19.6038 53.6759 16.5697C56.71 13.5357 60.3119 11.129 64.276 9.48702C68.2401 7.84502 72.4889 6.9999 76.7796 6.9999C81.0704 6.9999 85.3191 7.84502 89.2832 9.48702C93.2474 11.129 96.8493 13.5357 99.8833 16.5698C102.917 19.6038 105.324 23.2057 106.966 27.1698C108.608 31.1339 109.453 35.3827 109.453 39.6734L102.422 39.6734C102.422 36.306 101.759 32.9716 100.47 29.8605C99.1814 26.7494 97.2926 23.9227 94.9115 21.5415C92.5304 19.1604 89.7036 17.2716 86.5925 15.983C83.4814 14.6943 80.147 14.0311 76.7796 14.0311C73.4122 14.0311 70.0778 14.6943 66.9667 15.983C63.8556 17.2716 61.0288 19.1604 58.6477 21.5415C56.2666 23.9226 54.3778 26.7494 53.0892 29.8605C51.8005 32.9716 51.1373 36.306 51.1373 39.6734L44.1061 39.6734Z" stroke="black" stroke-width="2"/>
<path d="M76.5586 95.1348C76.7674 92.205 80.4524 89.5478 82.8064 88.3522C86.1273 86.6654 89.0877 86.5261 92.7132 86.5261C99.0982 86.5261 106.239 86.5308 110.386 80.8159C112.442 77.9834 112.483 74.168 112.483 70.8159C112.483 69.5397 112.917 65.7433 111.702 65.1348" stroke="black" stroke-width="2" stroke-linecap="round"/>
</svg>
