<svg width="42" height="42" viewBox="0 0 42 42" fill="none" xmlns="http://www.w3.org/2000/svg">
<path fill-rule="evenodd" clip-rule="evenodd" d="M20.9992 37.7999C30.2776 37.7999 37.7992 30.2783 37.7992 21C37.7992 11.7216 30.2776 4.19995 20.9992 4.19995C11.7208 4.19995 4.19922 11.7216 4.19922 21C4.19922 30.2783 11.7208 37.7999 20.9992 37.7999ZM20.0641 15.0526C19.4197 14.623 18.5911 14.583 17.9083 14.9484C17.2255 15.3139 16.7992 16.0255 16.7992 16.8V25.2C16.7992 25.9744 17.2255 26.686 17.9083 27.0515C18.5911 27.4169 19.4197 27.3769 20.0641 26.9473L26.3641 22.7473C26.9483 22.3578 27.2992 21.7021 27.2992 21C27.2992 20.2978 26.9483 19.6421 26.3641 19.2526L20.0641 15.0526Z" fill="#F49231"/>
</svg>
