<svg width="122" height="120" viewBox="0 0 122 120" fill="none" xmlns="http://www.w3.org/2000/svg">
<path d="M52.1148 95.5772C56.309 100.21 64.0067 97.2426 64.0067 90.9936L64.0068 28.8431C64.0068 22.594 56.309 19.627 52.1148 24.2594L23.9796 55.3347C21.624 57.9365 21.624 61.9002 23.9796 64.5019L48.5 92" stroke="black" stroke-width="2" stroke-linecap="round" stroke-linejoin="round"/>
<path d="M13 47.3416C13 45.1324 14.7909 43.3416 17 43.3416H35.1953V75.7808H17C14.7909 75.7808 13 73.9899 13 71.7808V47.3416Z" fill="#F49231" stroke="black" stroke-width="2"/>
<path d="M88.8654 28.1889C108.286 44.1954 109.567 73.2196 88.8654 93.9208" stroke="#F49231" stroke-width="2" stroke-linecap="round"/>
<path d="M86.8654 28.1889C106.286 44.1954 107.567 73.2196 86.8654 93.9208" stroke="black" stroke-width="2" stroke-linecap="round"/>
<path d="M75.7297 40.9064C87.7984 50.8535 88.5944 68.8905 75.7297 81.7552" stroke="#F49231" stroke-width="2" stroke-linecap="round"/>
<path d="M73.7297 40.9064C85.7984 50.8535 86.5944 68.8905 73.7297 81.7552" stroke="black" stroke-width="2" stroke-linecap="round"/>
</svg>
